# xmcd
#
# Track frame offsets: 
#        150
#        13105
#        24632
#        36090
#        49215
#        62506
#        76000
#        90535
#        102519
#        115013
#        127292
#        141879
#        154597
#        167212
#        179555
#        192800
#        203937
#        216158
#        225540
#        234548
#
# Disc length: 3396 seconds
#
# Revision: 1
# Processed by: cddbd v1.5.2PL0 Copyright (c) Steve Scherf et al.
# Submitted via: ExactAudioCopy v1.4
#
DISCID=130d4214
DTITLE=Sister Rosetta Tharpe - The Absolutely Essential 3 Cd Collectio
DTITLE=n cd3
DYEAR=2016
DGENRE=Gospel
TTITLE0=This Train
TTITLE1=Up Above My Head I Hear Music In The Air
TTITLE2=Down By The Riverside
TTITLE3=Precious Memories
TTITLE4=God's Mighty Hand
TTITLE5=Oh, When I Come To The End Of My Journey
TTITLE6=The Lord Followed Me
TTITLE7=Didn't It Rain
TTITLE8=Stretch Out
TTITLE9=Beams Of Heaven
TTITLE10=My Journey To The Sky
TTITLE11=Teach Me To Be Right
TTITLE12=I Heard My Mother Call My Name
TTITLE13=Heaven Is Not My Home
TTITLE14=Ain't No Grave Hold My Body Down
TTITLE15=Lay Down Your Soul
TTITLE16=Family Prayer
TTITLE17=Jericho
TTITLE18=99 And A Half Won't Do 
TTITLE19=Take My Hand Precious Lord
EXTD=
EXTT0=
EXTT1=
EXTT2=
EXTT3=
EXTT4=
EXTT5=
EXTT6=
EXTT7=
EXTT8=
EXTT9=
EXTT10=
EXTT11=
EXTT12=
EXTT13=
EXTT14=
EXTT15=
EXTT16=
EXTT17=
EXTT18=
EXTT19=
PLAYORDER=
